<?xml version="1.0" encoding="UTF-8" standalone="no"?><!DOCTYPE svg PUBLIC "-//W3C//DTD SVG 1.1//EN" "http://www.w3.org/Graphics/SVG/1.1/DTD/svg11.dtd"><svg width="100%" height="100%" viewBox="0 0 363 447" version="1.1" xmlns="http://www.w3.org/2000/svg" xmlns:xlink="http://www.w3.org/1999/xlink" xml:space="preserve" xmlns:serif="http://www.serif.com/" style="fill-rule:evenodd;clip-rule:evenodd;stroke-linejoin:round;stroke-miterlimit:2;"><rect id="Artboard1" x="0" y="0" width="362.773" height="446.112" style="fill:none;"/><g id="Capa-3" serif:id="Capa 3"><path d="M273.837,437.004c0.222,-3.369 0.519,-12.633 0.591,-14.672c0.151,-4.25 -2.657,-46.659 -2.691,-49.086c-0.018,-1.326 2.039,-1.322 2.057,0c0.057,4.115 6.88,30.884 6.582,31.171c0.005,0.031 0.006,0.041 0.011,0.072c4.333,1.914 9.024,2.959 13.706,3.576c4.768,0.627 9.27,0.612 13.988,-0.414c4.532,-0.986 9.108,-2.098 13.264,-4.205c3.916,-1.985 7.347,-4.624 10.633,-7.511c2.663,-2.34 5.315,-4.833 7.423,-7.71c-9.252,-34.316 -26.629,-87.39 -47.93,-99.093c0,0 -36.613,-16.35 -71.459,-17.549c0,0 -1.57,8.541 -2.073,13.621c-2.258,22.756 -20.945,27.727 -24.884,28.217c-8.524,1.06 -18.147,-1.055 -26.025,-4.65c-3.633,-1.659 -15.75,-4.412 -26.936,-36.04l-3.995,0.057c0,0 -54.841,6.741 -65.841,28.449c-8.662,17.094 -30.371,71.223 -39.21,100.494c2.638,1.724 5.571,2.974 8.592,3.872c13.007,3.867 26.736,2.247 40.14,2.823c0.537,-4.75 1.75,-9.443 2.333,-14.186c0.058,-0.597 0.12,-1.195 0.188,-1.792c0.099,-1.164 4.255,-22.202 4.302,-22.972c0.079,-1.318 2.136,-1.323 2.056,0c-0.003,0.054 -0.523,7.479 -0.839,10.457c-0.404,3.82 -0.946,7.622 -1.302,11.449c-0.723,7.762 -1.213,23.851 -1.361,24.013c0.247,9.168 0.642,17.823 0.928,21.609" style="fill:#ef4450;fill-rule:nonzero;"/></g><g id="Capa-2" serif:id="Capa 2"><path d="M149.633,139.003c0,2.84 -2.303,5.143 -5.143,5.143c-2.84,0 -5.142,-2.303 -5.142,-5.143c0,-2.84 2.302,-5.143 5.142,-5.143c2.84,0 5.143,2.303 5.143,5.143" style="fill:#231f20;fill-rule:nonzero;"/><path d="M131.61,140.322c0.382,-1.356 1.191,-2.528 2.119,-3.489c0.946,-0.95 2.027,-1.718 3.177,-2.297c2.294,-1.172 4.81,-1.742 7.304,-1.79c2.493,-0.068 5.017,0.384 7.347,1.426c2.296,1.024 4.538,2.741 5.619,5.27c0.321,0.748 -0.026,1.615 -0.775,1.935c-0.518,0.222 -1.092,0.124 -1.503,-0.205l-0.161,-0.13c-1.395,-1.123 -3.062,-1.837 -4.851,-2.304c-1.786,-0.465 -3.675,-0.627 -5.554,-0.597c-1.881,0.029 -3.742,0.327 -5.471,0.883c-1.726,0.574 -3.283,1.412 -4.423,2.643l-0.144,0.157c-0.594,0.642 -1.594,0.681 -2.236,0.087c-0.45,-0.416 -0.602,-1.036 -0.448,-1.589" style="fill:#231f20;fill-rule:nonzero;"/><path d="M149.633,139.928c0,0.947 -0.768,1.714 -1.715,1.714c-0.946,0 -1.714,-0.767 -1.714,-1.714c0,-0.947 0.768,-1.714 1.714,-1.714c0.947,0 1.715,0.767 1.715,1.714" style="fill:#fff;fill-rule:nonzero;"/><path d="M171.783,146.146c-0.022,-3.777 -0.446,-7.564 -1.749,-11.042c-1.28,-3.476 -3.524,-6.548 -6.508,-8.756c-2.978,-2.218 -6.565,-3.625 -10.278,-4.419c-3.722,-0.798 -7.569,-1.092 -11.413,-1.098c-3.816,0.007 -7.622,0.483 -11.234,1.601c-3.597,1.12 -7.025,2.851 -9.822,5.328c-2.798,2.466 -4.942,5.616 -6.213,9.099c-1.28,3.48 -1.703,7.275 -1.447,10.992c0.254,3.718 1.255,7.371 2.925,10.687c1.663,3.322 4,6.288 6.777,8.738c5.557,4.932 13.024,7.544 20.421,7.284c7.399,-0.162 14.687,-3.223 19.975,-8.435c5.33,-5.17 8.511,-12.495 8.566,-19.979m2.424,0c0.029,4.05 -0.741,8.117 -2.279,11.882c-1.534,3.766 -3.822,7.225 -6.678,10.131c-2.858,2.904 -6.281,5.256 -10.028,6.884c-3.752,1.612 -7.817,2.491 -11.893,2.599c-8.159,0.232 -16.367,-2.753 -22.412,-8.225c-6.083,-5.42 -9.887,-13.312 -10.257,-21.419c-0.202,-4.034 0.326,-8.132 1.802,-11.935c1.46,-3.8 3.899,-7.218 6.981,-9.85c3.071,-2.661 6.772,-4.475 10.597,-5.624c3.839,-1.146 7.843,-1.6 11.804,-1.568c3.93,0.022 7.89,0.295 11.786,1.126c3.882,0.813 7.751,2.208 11.061,4.603c3.325,2.357 5.92,5.764 7.394,9.557c1.504,3.796 2.024,7.849 2.122,11.839" style="fill:#231f20;fill-rule:nonzero;"/><path d="M185.153,146.146c0.099,-3.99 0.619,-8.043 2.122,-11.839c1.474,-3.793 4.068,-7.2 7.394,-9.557c3.31,-2.395 7.179,-3.79 11.061,-4.603c3.896,-0.831 7.856,-1.104 11.786,-1.126c3.961,-0.032 7.966,0.422 11.805,1.568c3.824,1.149 7.524,2.963 10.597,5.624c3.082,2.632 5.52,6.05 6.98,9.85c1.477,3.803 2.005,7.901 1.803,11.935c-0.37,8.107 -4.174,15.999 -10.257,21.419c-6.045,5.472 -14.253,8.457 -22.413,8.225c-4.076,-0.108 -8.14,-0.987 -11.893,-2.599c-3.746,-1.628 -7.17,-3.98 -10.028,-6.884c-2.855,-2.906 -5.144,-6.365 -6.677,-10.131c-1.539,-3.765 -2.309,-7.832 -2.28,-11.882m2.425,0c0.054,7.484 3.236,14.809 8.566,19.979c5.286,5.212 12.575,8.273 19.974,8.435c7.397,0.26 14.865,-2.352 20.421,-7.284c2.778,-2.45 5.114,-5.416 6.777,-8.738c1.671,-3.316 2.672,-6.969 2.926,-10.687c0.255,-3.717 -0.167,-7.512 -1.448,-10.992c-1.27,-3.483 -3.414,-6.633 -6.212,-9.099c-2.797,-2.477 -6.226,-4.208 -9.823,-5.328c-3.612,-1.118 -7.418,-1.594 -11.233,-1.601c-3.846,0.006 -7.691,0.3 -11.413,1.098c-3.713,0.794 -7.301,2.201 -10.278,4.419c-2.985,2.208 -5.228,5.28 -6.509,8.756c-1.302,3.478 -1.727,7.265 -1.748,11.042" style="fill:#231f20;fill-rule:nonzero;"/><path d="M209.727,139.003c0,2.84 2.303,5.143 5.143,5.143c2.839,0 5.142,-2.303 5.142,-5.143c0,-2.84 -2.303,-5.143 -5.142,-5.143c-2.84,0 -5.143,2.303 -5.143,5.143" style="fill:#231f20;fill-rule:nonzero;"/><path d="M224.921,141.667c-1.139,-1.231 -2.697,-2.069 -4.422,-2.644c-1.729,-0.555 -3.59,-0.854 -5.471,-0.882c-1.878,-0.031 -3.768,0.131 -5.554,0.596c-1.79,0.468 -3.456,1.182 -4.852,2.305l-0.159,0.128c-0.635,0.511 -1.563,0.41 -2.073,-0.224c-0.354,-0.439 -0.413,-1.02 -0.207,-1.505c1.082,-2.528 3.323,-4.245 5.619,-5.269c2.331,-1.043 4.855,-1.494 7.348,-1.426c2.493,0.048 5.01,0.618 7.304,1.79c1.15,0.579 2.23,1.347 3.177,2.297c0.927,0.96 1.736,2.132 2.119,3.489c0.236,0.841 -0.253,1.714 -1.094,1.95c-0.59,0.167 -1.198,-0.025 -1.589,-0.446l-0.146,-0.159Z" style="fill:#231f20;fill-rule:nonzero;"/><path d="M216.583,139.928c0,0.947 0.768,1.714 1.715,1.714c0.946,0 1.714,-0.767 1.714,-1.714c0,-0.947 -0.768,-1.714 -1.714,-1.714c-0.947,0 -1.715,0.767 -1.715,1.714" style="fill:#fff;fill-rule:nonzero;"/><path d="M181.368,145.582c-0.577,2.907 -1.212,5.798 -1.837,8.692c-0.615,2.897 -1.258,5.787 -1.918,8.672c-1.31,5.773 -2.665,11.535 -4.059,17.287c-0.661,2.876 -1.446,5.757 -2.222,8.636l-0.142,0.534l-0.102,0.46c-0.076,0.305 -0.14,0.613 -0.175,0.925c-0.103,0.619 -0.143,1.248 -0.144,1.874c0.002,1.253 0.174,2.506 0.508,3.716c0.346,1.207 0.856,2.367 1.5,3.451c0.663,1.072 1.464,2.066 2.396,2.941c0.875,0.81 2.166,1.761 3.293,2.685c1.153,0.934 2.297,1.881 3.408,2.874c0.581,0.518 0.631,1.408 0.113,1.988c-0.439,0.493 -1.146,0.603 -1.705,0.309c-1.32,-0.692 -2.608,-1.43 -3.888,-2.182c-1.285,-0.787 -2.502,-1.421 -3.91,-2.496c-2.671,-2.053 -4.684,-5.014 -5.626,-8.287c-0.489,-1.632 -0.721,-3.341 -0.687,-5.045c0.013,-0.851 0.081,-1.704 0.229,-2.543c0.057,-0.423 0.147,-0.838 0.253,-1.251l0.152,-0.62l0.149,-0.537c0.796,-2.826 1.608,-5.643 2.368,-8.513c1.533,-5.716 3.107,-11.422 4.724,-17.116c0.803,-2.849 1.625,-5.693 2.473,-8.531c0.839,-2.839 1.668,-5.681 2.555,-8.509c0.195,-0.624 0.861,-0.972 1.486,-0.776c0.581,0.182 0.922,0.778 0.808,1.362" style="fill:#231f20;fill-rule:nonzero;"/><path d="M214.301,228.786c-0.221,2.879 -1.578,5.36 -3.555,7.395c-0.999,0.988 -2.149,1.843 -3.4,2.48c-0.61,0.364 -1.267,0.586 -1.922,0.821l-0.983,0.342c-0.332,0.083 -0.667,0.147 -1.001,0.22c-2.676,0.684 -5.358,0.51 -7.922,0.221c-1.259,-0.263 -2.523,-0.506 -3.739,-0.86c-1.2,-0.413 -2.385,-0.848 -3.538,-1.338c-0.6,-0.254 -0.88,-0.947 -0.627,-1.547c0.2,-0.469 0.666,-0.743 1.147,-0.719l0.11,0.006c1.205,0.063 2.378,0.177 3.537,0.316c1.164,0.076 2.314,0.086 3.45,0.172l1.684,-0.062c0.555,-0.043 1.122,0.024 1.656,-0.088l1.617,-0.212c0.539,-0.058 1.036,-0.232 1.556,-0.335c2.033,-0.545 3.897,-1.377 5.508,-2.617c0.193,-0.165 0.405,-0.31 0.61,-0.466c0.204,-0.159 0.374,-0.351 0.565,-0.525c0.388,-0.347 0.735,-0.732 1.093,-1.127c0.675,-0.785 1.334,-1.739 1.862,-2.584l0.129,-0.205c0.344,-0.549 1.067,-0.715 1.616,-0.371c0.382,0.239 0.578,0.663 0.547,1.083" style="fill:#231f20;fill-rule:nonzero;"/><path d="M256.444,159.303c0.343,-1.908 0.826,-3.682 1.424,-5.48c0.598,-1.786 1.285,-3.561 2.17,-5.275c0.887,-1.71 1.927,-3.392 3.286,-4.921c1.353,-1.514 3.066,-2.917 5.204,-3.723c1.061,-0.397 2.214,-0.622 3.356,-0.647c0.582,-0.021 1.122,0.018 1.718,0.088c0.788,0.108 1.584,0.422 2.211,0.865c1.279,0.899 1.928,2.038 2.412,3.063c0.464,1.045 0.746,2.062 0.959,3.059c0.794,3.979 0.689,7.761 0.39,11.511c-0.317,3.742 -0.912,7.429 -1.764,11.061c-0.837,3.634 -1.924,7.216 -3.372,10.7c-0.723,1.742 -1.533,3.462 -2.498,5.134c-0.976,1.661 -2.065,3.316 -3.6,4.749c-0.765,0.712 -1.648,1.38 -2.714,1.861c-1.055,0.484 -2.35,0.732 -3.581,0.531c-1.233,-0.189 -2.306,-0.744 -3.163,-1.403c-0.858,-0.67 -1.546,-1.434 -2.153,-2.221c-0.465,-0.603 -0.352,-1.47 0.251,-1.935c0.572,-0.441 1.379,-0.364 1.859,0.158l0.01,0.012c1.108,1.213 2.443,2.137 3.597,2.203c1.125,0.104 2.312,-0.615 3.368,-1.756c2.105,-2.316 3.615,-5.574 4.814,-8.822c2.332,-6.598 3.782,-13.647 4.368,-20.643c0.137,-1.749 0.194,-3.497 0.17,-5.218c-0.026,-1.716 -0.146,-3.425 -0.46,-4.992c-0.157,-0.78 -0.368,-1.522 -0.638,-2.14c-0.257,-0.617 -0.597,-1.091 -0.819,-1.241c-0.112,-0.089 -0.184,-0.114 -0.293,-0.143c-0.306,-0.041 -0.673,-0.085 -1,-0.078c-0.673,-0.006 -1.332,0.107 -1.981,0.32c-2.633,0.838 -4.919,3.497 -6.653,6.387c-1.77,2.911 -3.132,6.253 -4.188,9.544l-0.017,0.058c-0.234,0.725 -1.01,1.125 -1.736,0.892c-0.666,-0.214 -1.058,-0.887 -0.937,-1.558" style="fill:#231f20;fill-rule:nonzero;"/><path d="M97.294,143.71c-0.537,-0.327 -1.06,-0.558 -1.482,-0.653c-0.423,-0.094 -0.864,-0.079 -1.46,0.006c-0.289,0.04 -0.606,0.099 -0.927,0.161l-0.492,0.099c-0.085,0.024 -0.132,0.045 -0.195,0.072c-0.22,0.104 -0.463,0.301 -0.716,0.667c-0.51,0.725 -0.893,1.898 -1.148,3.095c-0.26,1.213 -0.388,2.509 -0.476,3.816c-0.3,5.267 0.238,10.728 1.085,16.069c0.923,5.326 2.19,10.669 4.294,15.486c0.54,1.189 1.129,2.341 1.81,3.373c0.675,1.029 1.472,1.931 2.286,2.486c0.83,0.551 1.577,0.691 2.501,0.393c0.918,-0.316 1.902,-1.079 2.773,-1.992l0.021,-0.022c0.525,-0.553 1.399,-0.574 1.951,-0.048c0.515,0.49 0.569,1.282 0.148,1.834c-0.913,1.203 -2.009,2.425 -3.678,3.193c-0.83,0.371 -1.814,0.599 -2.801,0.531c-0.988,-0.053 -1.925,-0.37 -2.714,-0.799c-1.593,-0.869 -2.694,-2.098 -3.638,-3.32c-0.938,-1.237 -1.704,-2.531 -2.369,-3.852c-1.33,-2.641 -2.334,-5.363 -3.148,-8.121c-0.829,-2.756 -1.469,-5.549 -1.957,-8.368c-0.502,-2.815 -0.856,-5.657 -1.024,-8.525c-0.188,-2.867 -0.177,-5.758 0.114,-8.688c0.149,-1.467 0.401,-2.94 0.804,-4.434c0.421,-1.487 0.948,-3.026 2.165,-4.508c0.604,-0.722 1.488,-1.45 2.605,-1.764c0.272,-0.075 0.564,-0.128 0.824,-0.154l0.544,-0.034c0.371,-0.02 0.746,-0.04 1.153,-0.041c0.789,-0.007 1.768,0.076 2.667,0.438c0.901,0.353 1.558,0.901 2.137,1.399c0.578,0.497 0.644,1.37 0.147,1.949c-0.449,0.52 -1.2,0.626 -1.767,0.279l-0.037,-0.023Z" style="fill:#231f20;fill-rule:nonzero;"/><path d="M259.183,185.157c-3.046,11.895 -6.692,23.674 -11.484,35.047c-2.403,5.681 -5.097,11.254 -8.169,16.638c-1.528,2.695 -3.179,5.326 -4.874,7.934c-1.757,2.569 -3.557,5.118 -5.554,7.531c-3.921,4.871 -8.382,9.407 -13.536,13.182c-5.161,3.727 -11.029,6.769 -17.417,8.197c-3.181,0.729 -6.447,1.093 -9.717,1.108c-3.314,-0.031 -6.58,-0.497 -9.727,-1.286c-6.304,-1.582 -12.126,-4.351 -17.507,-7.651c-10.748,-6.68 -19.858,-15.429 -27.813,-24.961c-7.958,-9.558 -14.659,-20.083 -20.24,-31.135c-2.79,-5.529 -5.281,-11.207 -7.454,-17.003c-2.182,-5.793 -4.039,-11.711 -5.497,-17.728c-3.001,-11.999 -4.349,-24.538 -3.324,-36.894c0.063,-0.792 0.757,-1.382 1.549,-1.318c0.773,0.062 1.353,0.73 1.322,1.498c-0.269,6.024 -0.01,12.059 0.699,18.034c0.716,5.979 1.954,11.874 3.546,17.701c3.177,11.64 7.635,22.931 13.257,33.603c5.599,10.681 12.357,20.744 20.079,29.944c7.75,9.147 16.603,17.463 26.705,23.622c5.048,3.042 10.427,5.519 16.009,6.868c2.786,0.674 5.614,1.048 8.415,1.05c2.842,-0.003 5.681,-0.322 8.462,-0.93c1.399,-0.276 2.765,-0.696 4.134,-1.109c1.347,-0.487 2.698,-0.967 4.013,-1.558c2.63,-1.169 5.193,-2.549 7.609,-4.193c4.839,-3.271 9.278,-7.265 13.184,-11.773c7.891,-8.989 13.826,-19.682 18.756,-30.71c4.915,-11.072 8.736,-22.649 11.786,-34.419l0.002,-0.007c0.199,-0.769 0.984,-1.231 1.754,-1.032c0.768,0.2 1.231,0.98 1.032,1.75" style="fill:#231f20;fill-rule:nonzero;"/><path d="M232.735,53.049c0,0 -4.886,48.564 -120.938,44.917c0.342,15.604 -9.01,31.034 -11.249,46.48l-1.464,10.095c0,0 1.571,-20.68 -8.569,-11.671c0,0 -9.495,-16.315 -11.978,-35.238c-1.355,-10.32 -0.856,-22.879 3.92,-37.05c14.558,-43.199 60.547,-33.603 86.003,-52.373c25.456,-18.771 82.017,14.784 64.275,34.84" style="fill:#231f20;fill-rule:nonzero;"/><path d="M260.668,151.438l5.427,-9.796c0,-17.713 -5.673,-34.805 -5.673,-34.805c0,0 1.883,-27.512 -9.689,-46.797c-11.57,-19.285 -22.37,-4.372 -22.37,-4.372c0,0 -20.056,12.6 0,35.742c20.057,23.142 23.142,26.485 23.142,26.485c0.456,5.694 1.572,11.316 3.327,16.753l5.836,16.79Z" style="fill:#231f20;fill-rule:nonzero;"/><path d="M128.725,159.479c0,1.278 -1.036,2.314 -2.314,2.314c-1.279,0 -2.314,-1.036 -2.314,-2.314c0,-1.278 1.035,-2.314 2.314,-2.314c1.278,0 2.314,1.036 2.314,2.314" style="fill:#231f20;fill-rule:nonzero;"/><path d="M172.273,143.971c0.887,-1.191 1.91,-2.098 3.182,-2.8c1.25,-0.693 2.731,-1.083 4.204,-1.027c1.468,0.06 2.883,0.51 4.111,1.178c0.62,0.33 1.153,0.767 1.727,1.148c0.505,0.454 1.003,0.912 1.483,1.38l-1.229,1.315c-0.499,-0.348 -0.973,-0.716 -1.454,-1.072c-0.512,-0.284 -0.995,-0.638 -1.519,-0.869c-1.026,-0.532 -2.112,-0.799 -3.19,-0.877c-1.086,-0.077 -2.154,0.228 -3.168,0.689c-0.989,0.478 -1.978,1.228 -2.704,2.009l-1.443,-1.074Z" style="fill:#231f20;fill-rule:nonzero;"/><path d="M247.304,144.704c0.842,-0.649 1.735,-1.01 2.646,-1.28c0.911,-0.261 1.848,-0.379 2.782,-0.519c0.934,-0.132 1.88,-0.203 2.829,-0.257c0.952,-0.035 1.908,-0.047 2.886,0.056l0.517,2.883c-0.881,0.436 -1.781,0.758 -2.686,1.056c-0.909,0.279 -1.82,0.542 -2.742,0.743c-0.923,0.194 -1.843,0.409 -2.789,0.481c-0.947,0.064 -1.911,0.036 -2.925,-0.279l-0.518,-2.884Z" style="fill:#231f20;fill-rule:nonzero;"/><path d="M111.538,147.588c-1.016,0.315 -1.979,0.343 -2.926,0.279c-0.945,-0.072 -1.865,-0.287 -2.789,-0.481c-0.922,-0.201 -1.834,-0.464 -2.742,-0.743c-0.904,-0.298 -1.806,-0.62 -2.686,-1.055l0.518,-2.884c0.977,-0.102 1.934,-0.091 2.886,-0.056c0.948,0.054 1.894,0.125 2.829,0.257c0.933,0.14 1.87,0.258 2.782,0.519c0.91,0.27 1.804,0.631 2.646,1.28l-0.518,2.884Z" style="fill:#231f20;fill-rule:nonzero;"/><path d="M114.864,123.515c-0.409,-0.058 -0.97,0.108 -1.291,0.393c-0.051,0.042 -0.077,0.066 -0.063,0.053l-0.001,-0.004l0,-0.021c0.007,-0.028 -0.02,-0.009 0.023,-0.075l0.181,-0.304l0.436,-0.661c0.298,-0.45 0.637,-0.877 0.973,-1.309c0.689,-0.847 1.429,-1.664 2.232,-2.416c1.599,-1.513 3.411,-2.814 5.353,-3.879c3.895,-2.114 8.241,-3.365 12.593,-3.77c4.361,-0.422 8.712,-0.011 12.853,0.943c1.046,0.206 2.052,0.539 3.076,0.805c1.011,0.308 1.997,0.676 2.993,1.011l2.917,1.162c0.954,0.422 1.89,0.885 2.83,1.325c0.997,0.466 1.427,1.652 0.961,2.648c-0.43,0.922 -1.476,1.359 -2.419,1.052l-0.089,-0.029c-0.936,-0.303 -1.876,-0.583 -2.799,-0.904l-2.808,-0.805c-1.887,-0.454 -3.767,-0.884 -5.655,-1.175c-1.889,-0.303 -3.776,-0.481 -5.655,-0.55c-1.876,-0.015 -3.746,-0.003 -5.579,0.251c-1.833,0.248 -3.633,0.621 -5.382,1.152c-1.751,0.528 -3.425,1.262 -5.042,2.097c-1.616,0.845 -3.16,1.815 -4.684,2.858c-0.743,0.544 -1.503,1.08 -2.236,1.664l-1.112,0.886l-0.573,0.467l-0.324,0.26l-0.236,0.198l-0.2,0.162c-0.374,0.319 -0.987,0.519 -1.45,0.495c-1.098,-0.049 -1.95,-0.979 -1.901,-2.078c0.049,-1.099 0.979,-1.951 2.078,-1.902" style="fill:#231f20;fill-rule:nonzero;"/><path d="M244.672,127.495c-0.463,0.024 -1.076,-0.176 -1.45,-0.495l-0.198,-0.162l-0.238,-0.198l-0.323,-0.26l-0.573,-0.467l-1.112,-0.886c-0.734,-0.584 -1.493,-1.12 -2.236,-1.664c-1.523,-1.043 -3.069,-2.013 -4.684,-2.858c-1.617,-0.835 -3.29,-1.569 -5.042,-2.097c-1.748,-0.531 -3.55,-0.904 -5.381,-1.152c-1.833,-0.254 -3.703,-0.266 -5.579,-0.251c-1.879,0.069 -3.767,0.247 -5.656,0.55c-1.888,0.291 -3.768,0.721 -5.655,1.175l-2.808,0.805c-0.922,0.321 -1.863,0.601 -2.798,0.904l-0.09,0.029c-1.047,0.339 -2.17,-0.234 -2.51,-1.281c-0.313,-0.967 0.153,-2 1.052,-2.419c0.94,-0.44 1.876,-0.903 2.829,-1.325l2.918,-1.162c0.995,-0.335 1.982,-0.703 2.993,-1.011c1.024,-0.266 2.029,-0.599 3.076,-0.805c4.141,-0.954 8.492,-1.365 12.853,-0.943c4.352,0.405 8.698,1.656 12.593,3.77c1.941,1.065 3.753,2.366 5.353,3.879c0.804,0.752 1.542,1.569 2.232,2.416c0.335,0.432 0.675,0.859 0.972,1.309l0.437,0.661l0.18,0.304c0.043,0.066 0.017,0.047 0.025,0.075l-0.001,0.014l0,0.011c0.013,0.013 -0.013,-0.011 -0.064,-0.053c-0.321,-0.285 -0.882,-0.451 -1.292,-0.393c1.1,-0.049 2.031,0.803 2.079,1.902c0.049,1.099 -0.802,2.029 -1.902,2.078" style="fill:#231f20;fill-rule:nonzero;"/><path d="M219.313,260.261c0.197,4.388 0.305,8.774 0.441,13.162c0.063,2.195 0.144,4.385 0.17,6.584c0.011,2.275 -0.132,4.554 -0.455,6.812c-0.641,4.511 -1.949,8.968 -4.078,13.085c-2.127,4.102 -5.135,7.859 -8.968,10.651l0.138,-0.108c-4.085,3.458 -9.171,5.328 -14.273,5.917c-5.119,0.601 -10.222,0.038 -15.095,-1.136c-9.798,-2.359 -18.841,-7.809 -25.516,-15.377c-3.334,-3.784 -6.1,-8.069 -8.155,-12.671c-2.016,-4.614 -3.397,-9.513 -3.948,-14.507c-0.28,-2.481 -0.35,-5.039 -0.287,-7.475l0.189,-7.239c0.194,-4.826 0.306,-9.652 0.57,-14.478c0.033,-0.587 0.535,-1.037 1.122,-1.005c0.547,0.029 0.975,0.472 1.006,1.005c0.265,4.826 0.376,9.652 0.571,14.478l0.189,7.239c0.054,2.389 0.19,4.661 0.538,6.967c1.376,9.158 5.382,17.877 11.505,24.773c6.048,6.957 14.263,11.992 23.222,14.219c4.484,1.113 9.128,1.632 13.615,1.128c4.466,-0.484 8.797,-2.112 12.177,-4.831l0.111,-0.089l0.025,-0.018c3.318,-2.326 6.015,-5.539 7.989,-9.18c1.973,-3.649 3.257,-7.707 3.923,-11.864c0.336,-2.08 0.507,-4.189 0.535,-6.301c0.029,-2.188 0.108,-4.387 0.172,-6.579c0.135,-4.388 0.244,-8.774 0.44,-13.162c0.026,-0.588 0.523,-1.042 1.111,-1.016c0.554,0.025 0.991,0.473 1.016,1.016" style="fill:#231f20;fill-rule:nonzero;"/><path d="M139.445,273.585c-8.401,1.202 -16.801,2.896 -24.986,5.104c-8.184,2.209 -16.242,4.919 -23.695,8.663c-3.715,1.869 -7.29,3.995 -10.458,6.536c-1.55,1.298 -3.098,2.604 -4.399,4.101c-1.356,1.45 -2.474,3.073 -3.606,4.802c-4.367,7.017 -7.942,14.814 -11.335,22.605c-6.715,15.671 -12.638,31.754 -18.454,47.865c-5.719,16.148 -11.271,32.381 -16.695,48.643l-0.003,0.009c-0.201,0.603 -0.851,0.928 -1.454,0.727c-0.581,-0.194 -0.903,-0.809 -0.746,-1.392c4.508,-16.594 9.495,-33.034 14.874,-49.366c2.689,-8.165 5.431,-16.319 8.404,-24.398c2.958,-8.084 6.012,-16.141 9.418,-24.085c3.441,-7.934 6.929,-15.854 11.716,-23.373c1.223,-1.851 2.565,-3.766 4.151,-5.445c1.539,-1.725 3.274,-3.211 5.044,-4.62c3.586,-2.764 7.478,-4.969 11.456,-6.879c7.995,-3.767 16.388,-6.299 24.859,-8.17c4.234,-0.955 8.51,-1.68 12.792,-2.292c4.289,-0.613 8.567,-1.098 12.923,-1.326c0.634,-0.033 1.175,0.454 1.209,1.089c0.031,0.598 -0.401,1.112 -0.982,1.197l-0.033,0.005Z" style="fill:#231f20;fill-rule:nonzero;"/><path d="M220.104,271.179c4.65,0.167 9.246,0.534 13.853,1.003c4.601,0.469 9.204,0.992 13.782,1.712c9.162,1.392 18.279,3.264 27.252,5.916c8.925,2.728 17.872,6.037 25.825,11.807c1.939,1.503 3.876,3.106 5.509,5.047l1.227,1.444l1.067,1.494c0.738,0.989 1.371,2.01 1.994,3.033c2.496,4.091 4.585,8.301 6.517,12.556c3.826,8.518 7.046,17.217 10.014,25.975c2.985,8.754 5.673,17.59 8.227,26.454c5.058,17.747 9.52,35.625 13.361,53.664c0.145,0.684 -0.291,1.356 -0.974,1.501c-0.658,0.14 -1.306,-0.259 -1.482,-0.9l-0.005,-0.017c-4.841,-17.715 -9.967,-35.376 -15.452,-52.88c-5.541,-17.468 -11.333,-34.933 -18.76,-51.49c-1.888,-4.11 -3.922,-8.144 -6.235,-11.894c-0.577,-0.94 -1.159,-1.872 -1.805,-2.723l-0.939,-1.311l-1.004,-1.188c-1.313,-1.599 -2.939,-2.955 -4.617,-4.28c-3.447,-2.571 -7.368,-4.667 -11.422,-6.506c-4.061,-1.847 -8.292,-3.41 -12.596,-4.794c-8.608,-2.784 -17.491,-4.894 -26.442,-6.696c-4.483,-0.872 -8.978,-1.726 -13.497,-2.453c-4.513,-0.727 -9.063,-1.378 -13.582,-1.952l-0.021,-0.002c-0.693,-0.088 -1.185,-0.722 -1.096,-1.416c0.082,-0.653 0.655,-1.125 1.301,-1.104" style="fill:#231f20;fill-rule:nonzero;"/><path d="M140.051,272.833c-0.606,1.312 -1.069,2.68 -1.257,4.113c-0.173,1.431 -0.205,2.887 0.008,4.334c0.356,2.895 1.302,5.733 2.596,8.405c2.602,5.347 6.317,10.169 10.581,14.365c4.285,4.185 9.144,7.768 14.369,10.583c2.621,1.388 5.359,2.547 8.185,3.348c1.42,0.397 2.831,0.702 4.301,0.928c1.485,0.213 2.975,0.373 4.466,0.474c2.998,0.209 5.938,0.151 8.84,-0.299c2.901,-0.447 5.749,-1.26 8.435,-2.454c5.387,-2.359 10.144,-6.142 13.717,-10.853c3.58,-4.705 5.894,-10.391 6.586,-16.299c0.649,-5.901 -0.196,-12.038 -2.613,-17.541c-0.181,-0.407 0.003,-0.882 0.41,-1.063c0.397,-0.176 0.86,-0.002 1.051,0.383c2.771,5.667 3.97,12.109 3.424,18.451c-0.56,6.338 -2.868,12.531 -6.594,17.729c-1.863,2.598 -4.048,4.979 -6.521,7.025c-2.491,2.023 -5.242,3.731 -8.169,5.062c-2.923,1.336 -6.03,2.29 -9.211,2.787c-3.178,0.513 -6.43,0.585 -9.571,0.38c-1.58,-0.098 -3.152,-0.26 -4.716,-0.476c-1.573,-0.234 -3.183,-0.527 -4.735,-0.935c-3.114,-0.817 -6.104,-2.005 -8.943,-3.45c-5.697,-2.881 -10.733,-6.868 -15.099,-11.425c-4.346,-4.572 -8.133,-9.755 -10.623,-15.633c-1.236,-2.927 -2.169,-6.044 -2.359,-9.291c-0.135,-1.613 -0.009,-3.258 0.29,-4.863c0.302,-1.613 0.947,-3.148 1.745,-4.571c0.218,-0.388 0.708,-0.526 1.095,-0.309c0.369,0.207 0.512,0.66 0.338,1.037l-0.026,0.058Z" style="fill:#231f20;fill-rule:nonzero;"/><path d="M265.639,345.49c3.363,4.273 6.459,8.864 8.59,14.128c0.519,1.308 0.976,2.711 1.319,4.068c0.322,1.308 0.655,2.616 0.943,3.92c0.606,2.611 1.143,5.217 1.675,7.826c2.091,10.438 3.886,20.876 5.579,31.365l-1.536,-1.9c1.082,0.337 2.421,0.658 3.663,0.923c1.27,0.262 2.552,0.493 3.844,0.654c2.581,0.339 5.182,0.55 7.778,0.538c5.195,-0.002 10.357,-0.73 15.288,-2.202c4.939,-1.457 9.6,-3.736 13.923,-6.564c4.3,-2.873 8.264,-6.303 11.905,-10.133l0.012,-0.014c0.931,-0.978 2.479,-1.017 3.457,-0.087c0.913,0.868 1.001,2.28 0.257,3.26c-3.442,4.495 -7.577,8.543 -12.277,11.882c-4.708,3.32 -10.006,5.873 -15.566,7.474c-5.557,1.62 -11.364,2.315 -17.101,2.095c-2.867,-0.106 -5.728,-0.377 -8.541,-0.926c-1.408,-0.259 -2.805,-0.59 -4.193,-0.959c-1.413,-0.381 -2.713,-0.788 -4.203,-1.381l-1.536,-0.613l0,-1.287c-1.68,-10.409 -3.473,-20.839 -5.542,-31.16c-0.525,-2.576 -1.056,-5.153 -1.648,-7.698c-0.282,-1.28 -0.602,-2.537 -0.913,-3.799c-0.307,-1.208 -0.672,-2.325 -1.126,-3.477c-1.843,-4.57 -4.701,-8.873 -7.877,-12.897l-0.011,-0.013c-0.836,-1.059 -0.655,-2.595 0.404,-3.431c1.059,-0.836 2.595,-0.655 3.431,0.404l0.002,0.003Z" style="fill:#231f20;fill-rule:nonzero;"/><path d="M98.133,348.379c-3.185,4.036 -6.055,8.353 -7.911,12.956c-0.458,1.159 -0.828,2.291 -1.137,3.506c-0.31,1.264 -0.632,2.522 -0.914,3.804c-0.592,2.548 -1.123,5.127 -1.649,7.705c-2.07,10.325 -3.863,20.755 -5.544,31.168l0,0.003l-0.151,1.169l-1.237,0.545c-1.192,0.528 -2.258,0.902 -3.395,1.257c-1.12,0.374 -2.257,0.656 -3.398,0.929c-1.141,0.273 -2.298,0.452 -3.451,0.668c-1.16,0.152 -2.324,0.304 -3.491,0.413c-4.674,0.417 -9.412,0.139 -14.043,-0.706l-1.738,-0.309c-0.574,-0.13 -1.141,-0.295 -1.712,-0.44c-1.133,-0.317 -2.288,-0.565 -3.402,-0.944c-2.211,-0.819 -4.442,-1.576 -6.524,-2.681l-1.585,-0.769l-0.791,-0.384l-0.753,-0.454l-2.985,-1.857c-1.018,-0.582 -1.905,-1.35 -2.834,-2.055l-2.74,-2.164c-0.953,-0.754 -1.116,-2.137 -0.362,-3.09c0.714,-0.905 1.996,-1.098 2.94,-0.472l0.195,0.131l2.682,1.789c0.894,0.592 1.744,1.248 2.711,1.714l2.805,1.538l0.698,0.387l0.732,0.318l1.462,0.638c3.872,1.749 7.988,2.893 12.162,3.592c4.172,0.738 8.443,0.921 12.694,0.682c1.062,-0.053 2.121,-0.179 3.187,-0.24c1.056,-0.127 2.118,-0.25 3.173,-0.398c1.053,-0.168 2.109,-0.328 3.152,-0.534c1.031,-0.186 2.111,-0.457 3.027,-0.676l-1.387,1.715l0.001,-0.004c1.693,-10.483 3.487,-20.921 5.577,-31.352c0.532,-2.608 1.069,-5.213 1.674,-7.82c0.287,-1.302 0.619,-2.608 0.942,-3.914c0.341,-1.35 0.793,-2.738 1.309,-4.039c2.117,-5.23 5.201,-9.806 8.555,-14.067c0.754,-0.958 2.141,-1.123 3.098,-0.369c0.958,0.753 1.123,2.139 0.369,3.097l-0.001,0.002l-0.01,0.012Z" style="fill:#231f20;fill-rule:nonzero;"/><path d="M65.748,433.457c0.603,-2.094 1.278,-4.162 1.955,-6.229c0.702,-2.059 1.401,-4.119 2.135,-6.166c0.753,-2.041 1.466,-4.094 2.251,-6.124c0.769,-2.035 1.554,-4.064 2.388,-6.075c0.264,-0.635 0.994,-0.937 1.629,-0.674c0.593,0.247 0.894,0.904 0.717,1.506c-0.62,2.088 -1.291,4.158 -1.976,6.222c-0.67,2.07 -1.412,4.114 -2.114,6.173c-0.721,2.052 -1.477,4.091 -2.23,6.132c-0.778,2.031 -1.557,4.062 -2.409,6.067c-0.27,0.634 -1.002,0.93 -1.636,0.66c-0.586,-0.249 -0.883,-0.895 -0.71,-1.492" style="fill:#231f20;fill-rule:nonzero;"/><path d="M94.602,352.46c-1.234,6.861 -2.061,13.935 -2.843,20.943c-0.749,7.031 -1.313,14.082 -1.803,21.14c-0.449,7.062 -0.746,14.132 -0.976,21.205c-0.073,1.769 -0.12,3.537 -0.147,5.307l-0.149,5.308c-0.074,3.539 -0.124,7.079 -0.243,10.622l-0.001,0.033c-0.036,1.065 -0.929,1.899 -1.993,1.863c-1.017,-0.034 -1.824,-0.857 -1.863,-1.858c-0.258,-7.127 -0.334,-14.266 -0.142,-21.399l0.139,-5.351l0.247,-5.346c0.147,-3.566 0.405,-7.126 0.622,-10.689c0.502,-7.121 1.167,-14.231 2.029,-21.324c0.858,-7.106 1.908,-14.134 3.346,-21.234c0.211,-1.044 1.228,-1.719 2.272,-1.508c1.029,0.209 1.699,1.201 1.516,2.229l-0.011,0.059Z" style="fill:#231f20;fill-rule:nonzero;"/><path d="M292.255,434.289c-0.853,-2.005 -1.631,-4.036 -2.409,-6.067c-0.753,-2.041 -1.509,-4.08 -2.231,-6.132c-0.702,-2.059 -1.443,-4.103 -2.113,-6.173c-0.685,-2.065 -1.356,-4.134 -1.976,-6.222c-0.197,-0.659 0.179,-1.353 0.839,-1.549c0.617,-0.183 1.264,0.138 1.506,0.717c0.835,2.011 1.619,4.04 2.389,6.075c0.785,2.03 1.498,4.083 2.251,6.124c0.733,2.047 1.432,4.107 2.135,6.165c0.676,2.068 1.352,4.136 1.955,6.23c0.19,0.661 -0.192,1.353 -0.854,1.543c-0.612,0.177 -1.25,-0.138 -1.492,-0.711" style="fill:#231f20;fill-rule:nonzero;"/><path d="M269.525,351.68c1.437,7.101 2.488,14.128 3.346,21.234c0.862,7.093 1.527,14.204 2.029,21.325c0.217,3.562 0.475,7.123 0.622,10.688l0.247,5.347l0.139,5.35c0.191,7.133 0.116,14.272 -0.143,21.4c-0.038,1.064 -0.932,1.895 -1.997,1.857c-1.017,-0.037 -1.822,-0.854 -1.858,-1.856l-0.001,-0.039c-0.119,-3.543 -0.169,-7.083 -0.243,-10.622l-0.15,-5.309c-0.026,-1.77 -0.073,-3.538 -0.146,-5.307c-0.231,-7.073 -0.528,-14.143 -0.976,-21.205c-0.49,-7.057 -1.055,-14.109 -1.804,-21.139c-0.782,-7.009 -1.608,-14.082 -2.842,-20.944l-0.01,-0.056c-0.189,-1.048 0.508,-2.051 1.557,-2.24c1.033,-0.185 2.022,0.493 2.23,1.516" style="fill:#231f20;fill-rule:nonzero;"/></g></svg>