<?xml version="1.0" encoding="UTF-8" standalone="no"?><!DOCTYPE svg PUBLIC "-//W3C//DTD SVG 1.1//EN" "http://www.w3.org/Graphics/SVG/1.1/DTD/svg11.dtd">
<svg width="100%" height="100%" viewBox="0 0 116 116" version="1.1"
    xmlns="http://www.w3.org/2000/svg"
    xmlns:xlink="http://www.w3.org/1999/xlink" xml:space="preserve"
    xmlns:serif="http://www.serif.com/" style="fill-rule:evenodd;clip-rule:evenodd;stroke-linejoin:round;stroke-miterlimit:2;">
    <rect id="Artboard2" x="0" y="0" width="116" height="116" style="fill:none;"/>
    <clipPath id="_clip1">
        <rect x="0" y="0" width="116" height="116"/>
    </clipPath>
    <g clip-path="url(#_clip1)">
        <g>
            <path d="M18.946,90.716c-1.675,-3.182 -6.088,-12.323 -7.437,-22.603c-0.915,-6.969 -0.578,-15.451 2.647,-25.021c9.831,-29.173 40.888,-22.692 58.079,-35.368c16.606,-12.245 52.814,8.484 44.456,22.118c2.848,-1.198 6.901,-0.876 11.104,6.131c7.815,13.024 6.543,31.603 6.543,31.603c0,-0 3.764,11.34 3.831,23.187c0.501,-0.338 1.048,-0.632 1.644,-0.856c0.716,-0.269 1.495,-0.42 2.266,-0.437c0.393,-0.015 0.758,0.012 1.16,0.059c0.532,0.073 1.07,0.285 1.493,0.584c0.864,0.607 1.302,1.377 1.629,2.069c0.314,0.705 0.504,1.392 0.648,2.066c0.536,2.687 0.465,5.241 0.263,7.773c-0.214,2.527 -0.616,5.017 -1.191,7.47c-0.565,2.454 -1.299,4.873 -2.277,7.226c-0.489,1.176 -1.036,2.338 -1.687,3.467c-0.659,1.121 -1.395,2.239 -2.431,3.207c-0.517,0.481 -1.113,0.932 -1.833,1.257c-0.713,0.326 -1.587,0.494 -2.418,0.358c-0.833,-0.127 -1.558,-0.502 -2.136,-0.947c-0.216,-0.169 -0.416,-0.346 -0.603,-0.53c-1.891,6.991 -10.392,28.205 -12.466,31.841c-1.032,1.82 -2.147,3.597 -3.292,5.358c-1.186,1.735 -2.402,3.457 -3.75,5.086c-2.648,3.29 -5.661,6.353 -9.141,8.902c-3.486,2.517 -7.449,4.571 -11.762,5.536c-2.149,0.492 -4.354,0.738 -6.563,0.748c-2.238,-0.021 -4.443,-0.336 -6.568,-0.868c-4.258,-1.069 -8.189,-2.939 -11.823,-5.167c-7.258,-4.511 -13.411,-10.42 -18.783,-16.857c-5.374,-6.455 -9.899,-13.562 -13.668,-21.026c-1.884,-3.734 -3.566,-7.568 -5.034,-11.482c-0.157,-0.417 -0.312,-0.835 -0.463,-1.254c-0.286,0.213 -0.602,0.407 -0.956,0.57c-0.561,0.25 -1.225,0.404 -1.892,0.358c-0.667,-0.036 -1.3,-0.25 -1.833,-0.539c-1.076,-0.587 -1.819,-1.417 -2.457,-2.242c-0.633,-0.836 -1.15,-1.71 -1.599,-2.602c-0.899,-1.783 -1.577,-3.621 -2.126,-5.484c-0.56,-1.861 -0.992,-3.747 -1.322,-5.651c-0.339,-1.901 -0.578,-3.82 -0.691,-5.757c-0.127,-1.936 -0.12,-3.889 0.077,-5.867c0.1,-0.991 0.27,-1.986 0.543,-2.995c0.284,-1.004 0.64,-2.043 1.462,-3.044c0.106,-0.127 0.225,-0.255 0.357,-0.377Zm92.047,73.253c5.329,-6.07 -65.001,-14.301 -59.786,-8.088c5.234,6.177 11.212,11.793 18.034,15.952c3.409,2.055 7.042,3.727 10.812,4.638c1.881,0.455 3.791,0.708 5.682,0.709c1.92,-0.002 3.837,-0.217 5.715,-0.628c0.945,-0.186 1.867,-0.47 2.792,-0.749c0.909,-0.328 1.822,-0.653 2.71,-1.052c1.776,-0.789 3.507,-1.721 5.138,-2.831c3.268,-2.209 6.266,-4.906 8.903,-7.951Z" style="fill:#fff;fill-rule:nonzero;"/>
            <path d="M14.3,90.372c-0.465,0.893 -0.771,1.789 -1.022,2.676c-0.005,0.016 -0.009,0.032 -0.013,0.048c-0.331,1.224 -0.539,2.43 -0.661,3.632c-0,0.003 -0.001,0.006 -0.001,0.008c-0.218,2.196 -0.229,4.362 -0.089,6.51c0.123,2.087 0.38,4.154 0.744,6.202c0.357,2.056 0.824,4.092 1.428,6.101c0.616,2.087 1.381,4.143 2.387,6.141c0.556,1.105 1.201,2.185 1.985,3.219c0.007,0.01 0.015,0.02 0.022,0.029c0.952,1.233 2.1,2.432 3.707,3.308c0.001,0.001 0.003,0.002 0.005,0.003c1.016,0.553 2.228,0.945 3.5,1.018c0.231,0.015 0.462,0.018 0.691,0.011c1.297,3.261 2.742,6.468 4.326,9.606c0,0.001 0,0.001 0,0.001c3.905,7.733 8.597,15.095 14.165,21.783c0.001,0.001 0.002,0.002 0.003,0.003c5.643,6.761 12.118,12.953 19.742,17.691c0.007,0.004 0.014,0.008 0.021,0.013c3.975,2.437 8.283,4.468 12.94,5.636c0,0 0.001,0 0.001,0c2.428,0.609 4.948,0.965 7.504,0.989c0.019,-0 0.037,0 0.056,-0c2.5,-0.012 4.996,-0.291 7.428,-0.847c4.844,-1.085 9.305,-3.367 13.219,-6.194c0.008,-0.005 0.015,-0.011 0.022,-0.016c3.761,-2.754 7.023,-6.057 9.885,-9.61c1.412,-1.708 2.695,-3.519 3.945,-5.347c0.018,-0.025 0.035,-0.052 0.052,-0.078c1.187,-1.826 2.342,-3.669 3.412,-5.555c1.796,-3.147 8.278,-19.075 11.455,-28.349c1.511,0.168 3.073,-0.13 4.36,-0.72c1.131,-0.513 2.079,-1.208 2.892,-1.965c0.001,-0.002 0.003,-0.003 0.004,-0.004c1.333,-1.244 2.303,-2.663 3.15,-4.105c0.006,-0.009 0.011,-0.018 0.016,-0.027c0.74,-1.281 1.363,-2.597 1.917,-3.932c1.063,-2.558 1.864,-5.187 2.479,-7.855c0.619,-2.639 1.051,-5.318 1.281,-8.037c0,-0.007 0.001,-0.013 0.002,-0.02c0.23,-2.891 0.284,-5.806 -0.329,-8.874c-0.003,-0.018 -0.007,-0.036 -0.01,-0.053c-0.199,-0.931 -0.471,-1.878 -0.904,-2.854c-0.013,-0.028 -0.026,-0.056 -0.039,-0.084c-0.58,-1.228 -1.409,-2.552 -2.94,-3.629c-0.924,-0.653 -2.095,-1.12 -3.256,-1.279c-0.025,-0.003 -0.051,-0.007 -0.076,-0.01c-0.605,-0.071 -1.154,-0.104 -1.743,-0.085l-0.04,0.002c-0.724,-8.601 -2.852,-16.111 -3.558,-18.425c0.134,-3.844 0.26,-20.801 -7.14,-33.133c-3.199,-5.333 -6.538,-7.503 -9.356,-8.259c-0.018,-5.544 -3.747,-11.454 -10.018,-16.205c-6.717,-5.088 -16.126,-8.89 -24.931,-9.393c-6.331,-0.362 -12.348,0.973 -17.059,4.447c-8.272,6.099 -19.936,7.436 -30.659,10.911c-12.269,3.977 -23.424,10.336 -28.837,26.399c-3.457,10.257 -3.803,19.349 -2.822,26.818c1.189,9.062 4.616,17.291 6.757,21.739Zm4.646,0.344c-1.675,-3.182 -6.088,-12.323 -7.437,-22.603c-0.915,-6.969 -0.578,-15.451 2.647,-25.021c9.831,-29.173 40.888,-22.692 58.079,-35.368c16.606,-12.245 52.814,8.484 44.456,22.118c2.848,-1.198 6.901,-0.876 11.104,6.131c7.815,13.024 6.543,31.603 6.543,31.603c0,-0 3.764,11.34 3.831,23.187c0.501,-0.338 1.048,-0.632 1.644,-0.856c0.716,-0.269 1.495,-0.42 2.266,-0.437c0.393,-0.015 0.758,0.012 1.16,0.059c0.532,0.073 1.07,0.285 1.493,0.584c0.864,0.607 1.302,1.377 1.629,2.069c0.314,0.705 0.504,1.392 0.648,2.066c0.536,2.687 0.465,5.241 0.263,7.773c-0.214,2.527 -0.616,5.017 -1.191,7.47c-0.565,2.454 -1.299,4.873 -2.277,7.226c-0.489,1.176 -1.036,2.338 -1.687,3.467c-0.659,1.121 -1.395,2.239 -2.431,3.207c-0.517,0.481 -1.113,0.932 -1.833,1.257c-0.713,0.326 -1.587,0.494 -2.418,0.358c-0.833,-0.127 -1.558,-0.502 -2.136,-0.947c-0.216,-0.169 -0.416,-0.346 -0.603,-0.53c-1.891,6.991 -10.392,28.205 -12.466,31.841c-1.032,1.82 -2.147,3.597 -3.292,5.358c-1.186,1.735 -2.402,3.457 -3.75,5.086c-2.648,3.29 -5.661,6.353 -9.141,8.902c-3.486,2.517 -7.449,4.571 -11.762,5.536c-2.149,0.492 -4.354,0.738 -6.563,0.748c-2.238,-0.021 -4.443,-0.336 -6.568,-0.868c-4.258,-1.069 -8.189,-2.939 -11.823,-5.167c-7.258,-4.511 -13.411,-10.42 -18.783,-16.857c-5.374,-6.455 -9.899,-13.562 -13.668,-21.026c-1.884,-3.734 -3.566,-7.568 -5.034,-11.482c-0.157,-0.417 -0.312,-0.835 -0.463,-1.254c-0.286,0.213 -0.602,0.407 -0.956,0.57c-0.561,0.25 -1.225,0.404 -1.892,0.358c-0.667,-0.036 -1.3,-0.25 -1.833,-0.539c-1.076,-0.587 -1.819,-1.417 -2.457,-2.242c-0.633,-0.836 -1.15,-1.71 -1.599,-2.602c-0.899,-1.783 -1.577,-3.621 -2.126,-5.484c-0.56,-1.861 -0.992,-3.747 -1.322,-5.651c-0.339,-1.901 -0.578,-3.82 -0.691,-5.757c-0.127,-1.936 -0.12,-3.889 0.077,-5.867c0.1,-0.991 0.27,-1.986 0.543,-2.995c0.284,-1.004 0.64,-2.043 1.462,-3.044c0.106,-0.127 0.225,-0.255 0.357,-0.377Zm92.047,73.253c5.329,-6.07 -65.001,-14.301 -59.786,-8.088c5.234,6.177 11.212,11.793 18.034,15.952c3.409,2.055 7.042,3.727 10.812,4.638c1.881,0.455 3.791,0.708 5.682,0.709c1.92,-0.002 3.837,-0.217 5.715,-0.628c0.945,-0.186 1.867,-0.47 2.792,-0.749c0.909,-0.328 1.822,-0.653 2.71,-1.052c1.776,-0.789 3.507,-1.721 5.138,-2.831c3.268,-2.209 6.266,-4.906 8.903,-7.951Zm-5.636,0.145c-1.714,1.665 -3.557,3.174 -5.507,4.492c-0.003,0.002 -0.007,0.004 -0.01,0.007c-1.433,0.974 -2.954,1.79 -4.513,2.483c-0.005,0.002 -0.01,0.005 -0.015,0.007c-0.763,0.343 -1.547,0.62 -2.329,0.902c-0.764,0.231 -1.526,0.469 -2.307,0.623c-0.027,0.005 -0.054,0.011 -0.08,0.017c-1.598,0.349 -3.229,0.533 -4.861,0.535c-1.579,-0.001 -3.172,-0.217 -4.742,-0.597c-0,0 -0.001,0 -0.001,0c-3.377,-0.816 -6.623,-2.331 -9.677,-4.17c-4.801,-2.929 -9.153,-6.628 -13.106,-10.737c1.343,-0.02 2.848,0.003 4.475,0.062c12.665,0.458 32.401,3.105 41.853,6.089c0.267,0.084 0.544,0.182 0.82,0.287Z" style="fill:#fff;"/>
            <path d="M59.521,89.298c-0,1.918 -1.555,3.473 -3.473,3.473c-1.918,0 -3.473,-1.555 -3.473,-3.473c0,-1.918 1.555,-3.473 3.473,-3.473c1.918,-0 3.473,1.555 3.473,3.473" style="fill-rule:nonzero;"/>
            <path d="M47.35,90.189c0.258,-0.916 0.804,-1.707 1.431,-2.356c0.638,-0.642 1.369,-1.161 2.145,-1.552c1.549,-0.791 3.248,-1.176 4.933,-1.208c1.683,-0.046 3.388,0.259 4.961,0.963c1.551,0.691 3.065,1.851 3.795,3.559c0.217,0.505 -0.018,1.09 -0.524,1.306c-0.349,0.15 -0.737,0.084 -1.015,-0.138l-0.108,-0.088c-0.942,-0.758 -2.068,-1.24 -3.276,-1.556c-1.206,-0.314 -2.482,-0.423 -3.751,-0.403c-1.27,0.02 -2.527,0.221 -3.695,0.596c-1.165,0.388 -2.217,0.954 -2.987,1.785l-0.097,0.106c-0.401,0.434 -1.076,0.46 -1.51,0.059c-0.304,-0.281 -0.406,-0.7 -0.302,-1.073" style="fill-rule:nonzero;"/>
            <path d="M59.521,89.923c-0,0.639 -0.519,1.157 -1.158,1.157c-0.639,0 -1.158,-0.518 -1.158,-1.157c0,-0.64 0.519,-1.158 1.158,-1.158c0.639,0 1.158,0.518 1.158,1.158" style="fill-rule:nonzero;"/>
            <path d="M74.479,94.122c-0.015,-2.551 -0.301,-5.108 -1.181,-7.457c-0.864,-2.347 -2.38,-4.422 -4.395,-5.913c-2.011,-1.498 -4.433,-2.448 -6.941,-2.984c-2.513,-0.539 -5.111,-0.738 -7.707,-0.742c-2.577,0.005 -5.148,0.326 -7.587,1.081c-2.429,0.757 -4.744,1.926 -6.633,3.599c-1.889,1.665 -3.337,3.792 -4.195,6.144c-0.865,2.35 -1.151,4.913 -0.978,7.423c0.172,2.511 0.848,4.978 1.976,7.217c1.123,2.244 2.701,4.247 4.576,5.901c3.753,3.331 8.796,5.095 13.791,4.919c4.997,-0.109 9.918,-2.176 13.489,-5.696c3.6,-3.491 5.748,-8.438 5.785,-13.492m1.637,-0c0.02,2.735 -0.5,5.481 -1.539,8.024c-1.036,2.543 -2.581,4.879 -4.51,6.842c-1.93,1.961 -4.241,3.549 -6.772,4.649c-2.534,1.088 -5.279,1.682 -8.031,1.755c-5.51,0.156 -11.053,-1.859 -15.136,-5.555c-4.107,-3.66 -6.676,-8.99 -6.926,-14.464c-0.137,-2.725 0.22,-5.492 1.217,-8.06c0.986,-2.567 2.633,-4.875 4.714,-6.652c2.074,-1.797 4.573,-3.022 7.156,-3.798c2.593,-0.774 5.297,-1.081 7.972,-1.059c2.654,0.015 5.328,0.199 7.959,0.76c2.622,0.549 5.234,1.491 7.47,3.109c2.245,1.592 3.998,3.892 4.993,6.454c1.016,2.563 1.367,5.3 1.433,7.995" style="fill-rule:nonzero;"/>
            <path d="M83.508,94.122c0.067,-2.695 0.418,-5.432 1.433,-7.995c0.996,-2.562 2.747,-4.862 4.993,-6.454c2.236,-1.618 4.849,-2.56 7.47,-3.109c2.631,-0.561 5.305,-0.745 7.959,-0.76c2.675,-0.022 5.38,0.285 7.972,1.059c2.583,0.776 5.082,2.001 7.157,3.798c2.081,1.777 3.728,4.085 4.714,6.652c0.997,2.568 1.354,5.335 1.217,8.06c-0.25,5.474 -2.819,10.804 -6.927,14.464c-4.082,3.696 -9.625,5.711 -15.135,5.555c-2.753,-0.073 -5.498,-0.667 -8.032,-1.755c-2.53,-1.1 -4.842,-2.688 -6.772,-4.649c-1.928,-1.963 -3.474,-4.299 -4.509,-6.842c-1.039,-2.543 -1.559,-5.289 -1.54,-8.024m1.638,-0c0.036,5.054 2.185,10.001 5.785,13.492c3.569,3.52 8.492,5.587 13.488,5.696c4.996,0.176 10.039,-1.588 13.791,-4.919c1.876,-1.654 3.453,-3.657 4.577,-5.901c1.128,-2.239 1.804,-4.706 1.976,-7.217c0.172,-2.51 -0.113,-5.073 -0.978,-7.423c-0.858,-2.352 -2.306,-4.479 -4.195,-6.144c-1.889,-1.673 -4.205,-2.842 -6.634,-3.599c-2.439,-0.755 -5.01,-1.076 -7.586,-1.081c-2.597,0.004 -5.194,0.203 -7.707,0.742c-2.508,0.536 -4.931,1.486 -6.941,2.984c-2.016,1.491 -3.531,3.566 -4.396,5.913c-0.879,2.349 -1.166,4.906 -1.18,7.457" style="fill-rule:nonzero;"/>
            <path d="M100.103,89.298c0,1.918 1.556,3.473 3.473,3.473c1.918,0 3.473,-1.555 3.473,-3.473c-0,-1.918 -1.555,-3.473 -3.473,-3.473c-1.917,-0 -3.473,1.555 -3.473,3.473" style="fill-rule:nonzero;"/>
            <path d="M110.364,91.097c-0.769,-0.831 -1.821,-1.397 -2.986,-1.785c-1.168,-0.375 -2.425,-0.577 -3.695,-0.596c-1.268,-0.021 -2.544,0.088 -3.751,0.402c-1.208,0.317 -2.333,0.799 -3.276,1.557l-0.108,0.087c-0.428,0.345 -1.055,0.276 -1.399,-0.152c-0.24,-0.296 -0.279,-0.689 -0.14,-1.016c0.73,-1.707 2.244,-2.867 3.794,-3.558c1.575,-0.705 3.279,-1.009 4.963,-0.963c1.683,0.032 3.383,0.417 4.932,1.208c0.777,0.391 1.506,0.91 2.146,1.552c0.626,0.648 1.172,1.439 1.431,2.356c0.159,0.568 -0.171,1.157 -0.739,1.317c-0.399,0.113 -0.809,-0.017 -1.073,-0.301l-0.099,-0.108Z" style="fill-rule:nonzero;"/>
            <path d="M104.733,89.923c0,0.639 0.519,1.157 1.158,1.157c0.639,0 1.158,-0.518 1.158,-1.157c-0,-0.64 -0.519,-1.158 -1.158,-1.158c-0.639,0 -1.158,0.518 -1.158,1.158" style="fill-rule:nonzero;"/>
            <path d="M80.952,93.741c-0.39,1.963 -0.818,3.916 -1.241,5.87c-0.415,1.956 -0.849,3.908 -1.295,5.856c-0.884,3.899 -1.799,7.79 -2.741,11.674c-0.446,1.943 -0.976,3.888 -1.5,5.832l-0.096,0.361l-0.069,0.311c-0.052,0.206 -0.095,0.414 -0.118,0.624c-0.07,0.418 -0.097,0.843 -0.098,1.266c0.002,0.846 0.118,1.692 0.343,2.509c0.234,0.816 0.578,1.599 1.013,2.331c0.448,0.724 0.989,1.395 1.618,1.986c0.591,0.547 1.463,1.189 2.224,1.813c0.779,0.631 1.551,1.271 2.302,1.941c0.392,0.35 0.426,0.951 0.076,1.343c-0.296,0.333 -0.774,0.407 -1.151,0.208c-0.892,-0.467 -1.762,-0.965 -2.626,-1.473c-0.868,-0.532 -1.69,-0.96 -2.64,-1.686c-1.804,-1.386 -3.164,-3.386 -3.8,-5.596c-0.33,-1.102 -0.487,-2.256 -0.464,-3.407c0.009,-0.575 0.055,-1.151 0.155,-1.717c0.038,-0.286 0.099,-0.566 0.171,-0.845l0.102,-0.419l0.101,-0.363c0.538,-1.908 1.086,-3.81 1.599,-5.749c1.035,-3.86 2.098,-7.713 3.19,-11.558c0.543,-1.924 1.098,-3.845 1.67,-5.761c0.567,-1.918 1.127,-3.837 1.726,-5.747c0.132,-0.421 0.581,-0.656 1.003,-0.524c0.393,0.123 0.623,0.526 0.546,0.92" style="fill-rule:nonzero;"/>
            <path d="M24.175,92.477c-0.362,-0.221 -0.715,-0.377 -1,-0.441c-0.286,-0.064 -0.584,-0.053 -0.986,0.004c-0.195,0.027 -0.41,0.067 -0.626,0.109l-0.333,0.066c-0.057,0.017 -0.089,0.031 -0.131,0.049c-0.149,0.07 -0.313,0.203 -0.484,0.451c-0.344,0.489 -0.603,1.281 -0.775,2.09c-0.176,0.819 -0.262,1.694 -0.321,2.577c-0.203,3.557 0.16,7.244 0.732,10.851c0.624,3.597 1.479,7.205 2.9,10.458c0.365,0.803 0.762,1.581 1.222,2.278c0.456,0.695 0.994,1.304 1.544,1.679c0.561,0.372 1.065,0.467 1.689,0.265c0.62,-0.213 1.285,-0.728 1.873,-1.345l0.014,-0.015c0.354,-0.373 0.945,-0.387 1.317,-0.032c0.348,0.331 0.385,0.866 0.1,1.238c-0.616,0.813 -1.356,1.638 -2.483,2.157c-0.561,0.25 -1.225,0.404 -1.892,0.358c-0.667,-0.036 -1.3,-0.25 -1.833,-0.539c-1.076,-0.587 -1.819,-1.417 -2.457,-2.242c-0.633,-0.836 -1.15,-1.71 -1.599,-2.602c-0.899,-1.783 -1.577,-3.621 -2.126,-5.484c-0.56,-1.861 -0.992,-3.747 -1.322,-5.651c-0.339,-1.901 -0.578,-3.82 -0.691,-5.757c-0.127,-1.936 -0.12,-3.889 0.077,-5.867c0.1,-0.991 0.27,-1.986 0.543,-2.995c0.284,-1.004 0.64,-2.043 1.462,-3.044c0.407,-0.487 1.004,-0.979 1.759,-1.191c0.183,-0.051 0.381,-0.087 0.556,-0.104l0.368,-0.023c0.25,-0.014 0.503,-0.027 0.778,-0.028c0.533,-0.005 1.194,0.052 1.801,0.296c0.609,0.238 1.052,0.608 1.443,0.945c0.391,0.335 0.435,0.925 0.1,1.316c-0.303,0.351 -0.811,0.423 -1.194,0.188l-0.025,-0.015Z" style="fill-rule:nonzero;"/>
            <path d="M133.502,120.467c-2.057,8.033 -4.519,15.987 -7.756,23.667c-1.622,3.837 -3.442,7.6 -5.516,11.236c-1.032,1.82 -2.147,3.597 -3.292,5.358c-1.186,1.735 -2.402,3.457 -3.75,5.086c-2.648,3.29 -5.661,6.353 -9.141,8.902c-3.486,2.517 -7.449,4.571 -11.762,5.536c-2.149,0.492 -4.354,0.738 -6.563,0.748c-2.238,-0.021 -4.443,-0.336 -6.568,-0.868c-4.258,-1.069 -8.189,-2.939 -11.823,-5.167c-7.258,-4.511 -13.411,-10.42 -18.783,-16.857c-5.374,-6.455 -9.899,-13.562 -13.668,-21.026c-1.884,-3.734 -3.566,-7.568 -5.034,-11.482c-1.473,-3.912 -2.727,-7.909 -3.712,-11.972c-2.027,-8.103 -2.937,-16.571 -2.245,-24.915c0.043,-0.535 0.511,-0.934 1.046,-0.89c0.522,0.041 0.914,0.493 0.893,1.011c-0.182,4.068 -0.007,8.144 0.472,12.179c0.484,4.038 1.32,8.019 2.395,11.954c2.145,7.86 5.156,15.485 8.952,22.692c3.781,7.213 8.345,14.009 13.56,20.222c5.234,6.177 11.212,11.793 18.034,15.952c3.409,2.055 7.042,3.727 10.812,4.638c1.881,0.455 3.791,0.708 5.682,0.709c1.92,-0.002 3.837,-0.217 5.715,-0.628c0.945,-0.186 1.867,-0.47 2.792,-0.749c0.909,-0.328 1.822,-0.653 2.71,-1.052c1.776,-0.789 3.507,-1.721 5.138,-2.831c3.268,-2.209 6.266,-4.906 8.903,-7.951c5.329,-6.07 9.337,-13.291 12.667,-20.739c3.319,-7.477 5.899,-15.295 7.959,-23.243l0.001,-0.005c0.135,-0.52 0.665,-0.832 1.185,-0.697c0.518,0.135 0.831,0.662 0.697,1.182" style="fill-rule:nonzero;"/>
            <path d="M115.641,31.252c0,-0 -3.3,32.796 -81.671,30.333c0.231,10.538 -6.085,20.958 -7.597,31.389l-0.989,6.817c0,0 1.061,-13.965 -5.786,-7.881c-0,-0 -6.413,-11.018 -8.089,-23.797c-0.915,-6.969 -0.578,-15.451 2.647,-25.021c9.831,-29.173 40.888,-22.692 58.079,-35.368c17.191,-12.676 55.387,9.984 43.406,23.528" style="fill-rule:nonzero;"/>
            <path d="M134.505,97.696l3.665,-6.616c-0,-11.962 -3.832,-23.504 -3.832,-23.504c0,-0 1.272,-18.579 -6.543,-31.603c-7.813,-13.023 -15.106,-2.952 -15.106,-2.952c-0,-0 -13.545,8.509 -0,24.137c13.544,15.628 15.628,17.886 15.628,17.886c0.308,3.845 1.061,7.641 2.246,11.313l3.942,11.339Z" style="fill-rule:nonzero;"/>
            <path d="M45.401,103.126c0,0.863 -0.699,1.563 -1.562,1.563c-0.864,-0 -1.563,-0.7 -1.563,-1.563c-0,-0.863 0.699,-1.563 1.563,-1.563c0.863,0 1.562,0.7 1.562,1.563" style="fill-rule:nonzero;"/>
            <path d="M74.81,92.653c0.599,-0.804 1.29,-1.417 2.149,-1.891c0.844,-0.468 1.844,-0.731 2.839,-0.693c0.991,0.04 1.947,0.344 2.776,0.795c0.419,0.223 0.779,0.518 1.166,0.775c0.341,0.307 0.678,0.616 1.002,0.932l-0.83,0.888c-0.337,-0.235 -0.657,-0.483 -0.982,-0.724c-0.346,-0.191 -0.672,-0.43 -1.026,-0.586c-0.693,-0.36 -1.426,-0.54 -2.154,-0.593c-0.733,-0.052 -1.455,0.154 -2.139,0.466c-0.668,0.322 -1.336,0.829 -1.826,1.356l-0.975,-0.725Z" style="fill-rule:nonzero;"/>
            <path d="M33.795,95.096c-0.686,0.212 -1.337,0.231 -1.976,0.188c-0.638,-0.048 -1.26,-0.194 -1.884,-0.325c-0.622,-0.135 -1.238,-0.313 -1.851,-0.501c-0.611,-0.202 -1.22,-0.419 -1.814,-0.713l0.349,-1.948c0.66,-0.068 1.307,-0.061 1.949,-0.037c0.641,0.036 1.279,0.084 1.911,0.173c0.63,0.095 1.263,0.174 1.879,0.351c0.614,0.182 1.218,0.426 1.787,0.864l-0.35,1.948Z" style="fill-rule:nonzero;"/>
            <path d="M36.041,78.839c-0.276,-0.039 -0.655,0.073 -0.872,0.265c-0.034,0.029 -0.052,0.045 -0.043,0.036l-0,-0.003l-0,-0.014c0.004,-0.019 -0.014,-0.006 0.015,-0.051l0.123,-0.205l0.294,-0.446c0.201,-0.304 0.43,-0.592 0.657,-0.884c0.465,-0.572 0.965,-1.124 1.507,-1.632c1.08,-1.022 2.304,-1.9 3.615,-2.619c2.631,-1.428 5.566,-2.273 8.505,-2.546c2.945,-0.285 5.883,-0.008 8.679,0.637c0.707,0.139 1.386,0.364 2.078,0.543c0.682,0.208 1.348,0.457 2.021,0.683l1.97,0.785c0.644,0.285 1.276,0.597 1.911,0.894c0.673,0.315 0.964,1.116 0.649,1.789c-0.29,0.622 -0.997,0.917 -1.634,0.71l-0.06,-0.019c-0.632,-0.205 -1.267,-0.394 -1.89,-0.611l-1.896,-0.544c-1.275,-0.306 -2.544,-0.597 -3.819,-0.793c-1.276,-0.205 -2.55,-0.325 -3.819,-0.371c-1.267,-0.011 -2.53,-0.003 -3.768,0.169c-1.238,0.167 -2.453,0.419 -3.634,0.778c-1.183,0.357 -2.313,0.852 -3.405,1.416c-1.091,0.571 -2.134,1.226 -3.163,1.93c-0.502,0.368 -1.015,0.73 -1.51,1.124l-0.751,0.598l-0.387,0.316l-0.219,0.175l-0.159,0.134l-0.136,0.109c-0.252,0.216 -0.666,0.351 -0.979,0.335c-0.741,-0.034 -1.317,-0.662 -1.284,-1.404c0.034,-0.742 0.662,-1.317 1.404,-1.284" style="fill-rule:nonzero;"/>
            <path d="M123.702,81.527c-0.312,0.016 -0.726,-0.119 -0.979,-0.335l-0.134,-0.109l-0.16,-0.134l-0.219,-0.175l-0.386,-0.316l-0.751,-0.598c-0.496,-0.394 -1.009,-0.756 -1.51,-1.124c-1.029,-0.704 -2.073,-1.359 -3.164,-1.93c-1.092,-0.564 -2.221,-1.059 -3.405,-1.416c-1.18,-0.359 -2.397,-0.611 -3.633,-0.778c-1.238,-0.172 -2.501,-0.18 -3.768,-0.169c-1.269,0.046 -2.544,0.166 -3.82,0.371c-1.275,0.196 -2.544,0.487 -3.819,0.793l-1.896,0.544c-0.622,0.217 -1.258,0.406 -1.889,0.611l-0.061,0.019c-0.707,0.229 -1.466,-0.158 -1.695,-0.865c-0.212,-0.653 0.103,-1.351 0.71,-1.634c0.635,-0.297 1.267,-0.609 1.911,-0.894l1.97,-0.785c0.672,-0.226 1.339,-0.475 2.022,-0.683c0.691,-0.179 1.37,-0.404 2.077,-0.543c2.796,-0.645 5.735,-0.922 8.68,-0.637c2.939,0.273 5.874,1.118 8.504,2.546c1.311,0.719 2.534,1.597 3.615,2.619c0.543,0.508 1.041,1.06 1.507,1.632c0.226,0.292 0.456,0.58 0.657,0.884l0.295,0.446l0.121,0.205c0.029,0.045 0.012,0.032 0.017,0.051l-0.001,0.01l0,0.007c0.009,0.009 -0.008,-0.007 -0.043,-0.036c-0.217,-0.192 -0.595,-0.304 -0.872,-0.265c0.743,-0.033 1.371,0.542 1.404,1.284c0.033,0.742 -0.542,1.37 -1.285,1.404" style="fill-rule:nonzero;"/>
        </g>
    </g>
</svg>